<svg xmlns="http://www.w3.org/2000/svg" width="24" height="24" viewBox="0 0 24 24">
  <g id="Group_17955" data-name="Group 17955" transform="translate(-1602.5 -22)">
    <g id="Icon_ionic-ios-information-circle-outline" data-name="Icon ionic-ios-information-circle-outline" transform="translate(1599.125 18.625)">
      <path id="Path_12283" data-name="Path 12283" d="M16.552,11.763a1.092,1.092,0,1,1,1.087,1.06A1.061,1.061,0,0,1,16.552,11.763Zm.074,1.892H18.65v7.638H16.626Z" transform="translate(-2.268 -0.865)" fill="#fff"/>
      <path id="Path_12284" data-name="Path 12284" d="M15.375,4.99a10.381,10.381,0,1,1-7.344,3.04,10.316,10.316,0,0,1,7.344-3.04m0-1.615a12,12,0,1,0,12,12,12,12,0,0,0-12-12Z" fill="#fff"/>
    </g>
  </g>
</svg>
